# xmcd CD database file
#
# Track frame offsets:
#	150
#	14625
#	38630
#	61967
#	80975
#	94602
#	107947
#	123380
#	151712
#	169510
#	183280
#	206107
#	221010
#
# Disc length: 3201 seconds
#
# Revision: 0
# Processed by: cddbd v1.5.1PL0 Copyright (c) Steve Scherf et al.
# Submitted via: CDex 1.51
#
DISCID=af0c7f0d
DTITLE=Hiroshi Fujiwara - nothing but the MELLOW
DYEAR=2001
DGENRE=Country
TTITLE0=HOME MADE ICE CREAM
TTITLE1=POSTCARD FROM HOLLYWOOD
TTITLE2=I SHALL BE RELEASED
TTITLE3=SPECIAL DELIVERY
TTITLE4=GOOD TIME CHARIE'S GOT THE BLUES
TTITLE5=LOUISIANA 1927
TTITLE6=ALISON
TTITLE7=CAJUN MOON
TTITLE8=IT'S A BEAUTIFUL DAY
TTITLE9=SILENT MOVIES
TTITLE10=ANTONIO'S SONG
TTITLE11=SATURDAY CLOTHES
TTITLE12=DANNY BOY
EXTD=YEAR: 2001
EXTT0=
EXTT1=
EXTT2=
EXTT3=
EXTT4=
EXTT5=
EXTT6=
EXTT7=
EXTT8=
EXTT9=
EXTT10=
EXTT11=
EXTT12=
PLAYORDER=
